<?xml version="1.0" encoding="UTF-8"?>
<!-- Generator: visioncortex VTracer 0.6.4 -->
<svg version="1.1" xmlns="http://www.w3.org/2000/svg" width="292" height="85">
<path d="M0 0 C0.495 19.8 0.495 19.8 1 40 C2.65 38.35 4.3 36.7 6 35 C5.360625 34.71125 4.72125 34.4225 4.0625 34.125 C2 33 2 33 1 31 C0.51234523 26.69238284 0.43043649 24.73708219 3.125 21.25 C10.18898579 15.7216633 16.16945387 15.17481547 25 16 C25.92296875 16.35320313 26.8459375 16.70640625 27.796875 17.0703125 C32.28600382 18.37325477 36.1624357 17.7705466 40.75 17.1875 C41.61238281 17.09146484 42.47476563 16.99542969 43.36328125 16.89648438 C47.82713137 16.46820463 47.82713137 16.46820463 52 15 C53.875 14.83203125 53.875 14.83203125 56 14.8125 C56.70125 14.79832031 57.4025 14.78414062 58.125 14.76953125 C60 15 60 15 62 17 C64.83077248 16.85380987 67.56903972 16.41770774 70.37109375 15.99609375 C73 16 73 16 74.84765625 17.47265625 C75.22792969 17.97667969 75.60820312 18.48070313 76 19 C77.1446875 18.2575 77.1446875 18.2575 78.3125 17.5 C85.80217489 14.45335259 94.14594135 15.96995952 102 17 C102 21.62 102 26.24 102 31 C101.34 31 100.68 31 100 31 C99.67386719 30.30132812 99.34773438 29.60265625 99.01171875 28.8828125 C98.57472656 27.97273438 98.13773437 27.06265625 97.6875 26.125 C97.04361328 24.76761719 97.04361328 24.76761719 96.38671875 23.3828125 C95.0800612 20.73550524 95.0800612 20.73550524 92 19 C89.37468476 18.83286431 89.37468476 18.83286431 87 19 C86.0406843 21.19514873 86.0406843 21.19514873 86 24 C89.16221118 28.84872381 93.33967652 31.87226651 97.91015625 35.34765625 C101.73049602 38.36822396 103.63646641 40.75035328 105 45.4375 C105 49.96332292 103.98185172 51.6358596 101 55 C95.48972639 59.23867201 88.62789149 58.4452847 82 58 C81.06389893 57.74923706 81.06389893 57.74923706 80.10888672 57.4934082 C77.74868425 56.94120061 75.65695443 56.88681439 73.234375 56.90234375 C71.90019531 56.90717773 71.90019531 56.90717773 70.5390625 56.91210938 C69.15847656 56.92467773 69.15847656 56.92467773 67.75 56.9375 C66.34621094 56.94426758 66.34621094 56.94426758 64.9140625 56.95117188 C62.60930959 56.96293082 60.30468773 56.97936574 58 57 C58.66 56.01 59.32 55.02 60 54 C60.36844508 51.1913957 60.36844508 51.1913957 60.4140625 48.01953125 C60.45273438 46.85615234 60.49140625 45.69277344 60.53125 44.49414062 C60.5621875 43.27919922 60.593125 42.06425781 60.625 40.8125 C60.66367188 39.58595703 60.70234375 38.35941406 60.7421875 37.09570312 C60.83656103 34.06395344 60.92214549 31.03221159 61 28 C59.72125 28.02320312 58.4425 28.04640625 57.125 28.0703125 C53.25 28.140625 53.25 28.140625 51 26.875 C49.57901395 24.21065116 49.80232739 21.96508915 50 19 C49.34 19.33 48.68 19.66 48 20 C47.92584832 24.78715623 47.87139796 29.57397827 47.83520508 34.36157227 C47.82011757 35.99021223 47.79964494 37.61881156 47.77368164 39.24731445 C47.73729551 41.58815535 47.7202738 43.92845919 47.70703125 46.26953125 C47.69154739 46.99775589 47.67606354 47.72598053 47.66011047 48.47627258 C47.63477378 52.52061619 47.63477378 52.52061619 49.51831055 55.9831543 C50.00726807 56.31871338 50.49622559 56.65427246 51 57 C46.64028686 57.16775443 42.28038583 57.32829897 37.92016602 57.48217773 C36.43702051 57.53553529 34.95394439 57.59085973 33.47094727 57.64819336 C31.33885663 57.73027921 29.20661621 57.80528001 27.07421875 57.87890625 C25.79119873 57.9260376 24.50817871 57.97316895 23.1862793 58.02172852 C20 58 20 58 17 57 C16.01 57.33 15.02 57.66 14 58 C12.0625 58.1328125 12.0625 58.1328125 10 58.125 C8.9790625 58.12886719 8.9790625 58.12886719 7.9375 58.1328125 C6 58 6 58 3 57 C1.44578271 56.91893314 -0.11167027 56.89243102 -1.66796875 56.90234375 C-2.56064453 56.90556641 -3.45332031 56.90878906 -4.37304688 56.91210938 C-5.30181641 56.92048828 -6.23058594 56.92886719 -7.1875 56.9375 C-8.12787109 56.94201172 -9.06824219 56.94652344 -10.03710938 56.95117188 C-12.35813712 56.96295374 -14.67903644 56.97940442 -17 57 C-16.34 56.34 -15.68 55.68 -15 55 C-14.66914227 52.73732275 -14.66914227 52.73732275 -14.68115234 50.09130859 C-14.66128265 49.07040131 -14.64141296 48.04949402 -14.62094116 46.99765015 C-14.60938995 45.89240997 -14.59783875 44.7871698 -14.5859375 43.6484375 C-14.56657135 42.5192691 -14.5472052 41.39010071 -14.5272522 40.22671509 C-14.46732931 36.60955428 -14.42101998 32.99236187 -14.375 29.375 C-14.33683195 26.92706922 -14.29778092 24.47915204 -14.2578125 22.03125 C-14.16161741 16.02095376 -14.07660735 10.01057607 -14 4 C-14.99 3.67 -15.98 3.34 -17 3 C-16.67 2.34 -16.34 1.68 -16 1 C-10.57177565 -0.3918524 -5.77636271 0 0 0 Z M12 18 C11.67 18.99 11.34 19.98 11 21 C11.495 21.7425 11.99 22.485 12.5 23.25 C14.47571531 26.87214474 13.85095771 29.05465059 13 33 C19.6613344 31.96687638 24.51713579 29.91419734 30 26 C29.69369024 23.16663471 29.37605841 21.43873481 27.5 19.25 C22.90013275 16.95006637 16.88565651 16.07145138 12 18 Z M32 21 C33 23 33 23 33 23 Z M75 34 C75 36.64 75 39.28 75 42 C77.64 41.67 80.28 41.34 83 41 C80.42215154 38.35247996 78.08351902 36.05567935 75 34 Z M15.5 36.375 C12.56448579 39.45728992 12.06780071 40.10164054 11.75 44.3125 C12.01365979 48.20148193 12.49076584 50.04268832 15 53 C16.32 53 17.64 53 19 53 C19 46.73 19 40.46 19 34 C17.54612015 33.88520842 17.54612015 33.88520842 15.5 36.375 Z M86 44 C85.87625 45.0725 85.7525 46.145 85.625 47.25 C85.10356064 50.37863615 84.59911746 52.33480424 83 55 C84.82203581 57.22966747 84.82203581 57.22966747 87.4375 57.3125 C89.99282027 57.17724408 89.99282027 57.17724408 91.875 55.875 C93.25969773 53.94444278 93.25969773 53.94444278 92.9375 51.0625 C91.88944433 47.63885148 90.78969296 46.19793991 88 44 C87.34 44 86.68 44 86 44 Z " fill="#FAFAFA" transform="translate(146,13)"/>
<path d="M0 0 C6.71334393 4.04974998 9.61935224 10.80320195 13.1875 17.5625 C13.80302734 18.67947266 14.41855469 19.79644531 15.05273438 20.94726562 C20.07323712 30.33011203 24.68169831 40.27320677 22 51 C20.50870801 55.06248508 18.98689015 58.14647338 15.6875 61 C12.14845864 62.3168526 9.74898852 62.53556979 6 62 C3.4375 59.8125 3.4375 59.8125 1 57 C-3.04990741 52.9380572 -5.43217731 51.46551035 -11.16723633 51.35839844 C-12.26007935 51.36661621 -12.26007935 51.36661621 -13.375 51.375 C-26.90818623 51.01045025 -26.90818623 51.01045025 -32.375 45.6875 C-35.40188463 40.6814985 -36.46620579 36.69503621 -35.546875 30.94921875 C-34.67295414 27.8343151 -32.93286837 25.55820814 -31 23 C-29.07188639 20.06926732 -27.82367368 17.45291337 -26.8125 14.125 C-24.58633713 7.9268939 -19.42452758 4.67023011 -14.1875 1.0625 C-9.51744239 -0.49418587 -4.84089298 -1.03344906 0 0 Z " fill="#CA310E" transform="translate(102,13)"/>
<path d="M0 0 C3.55401093 0.30309923 3.55401093 0.30309923 8.234375 -0.84375 C8.234375 4.76625 8.234375 10.37625 8.234375 16.15625 C7.574375 16.15625 6.914375 16.15625 6.234375 16.15625 C6.01523437 15.63675781 5.79609375 15.11726563 5.5703125 14.58203125 C3.21002701 9.3913221 1.05602853 6.27614346 -3.765625 3.15625 C-7.71899824 2.21816143 -9.90779525 1.87030675 -13.765625 3.15625 C-15.17563164 5.97626327 -15.01110951 8.02632255 -14.765625 11.15625 C-12.44188159 16.53562451 -7.99247353 19.27062458 -3.390625 22.59375 C10.38471497 32.57264389 10.38471497 32.57264389 12.234375 40.15625 C12.234375 45.63334304 10.60171816 48.55066196 7.1953125 52.578125 C1.83136084 56.89493072 -3.54609859 57.68757386 -10.203125 57.59375 C-10.95303711 57.58617676 -11.70294922 57.57860352 -12.47558594 57.57080078 C-19.7663855 57.35299888 -24.58353426 55.61681377 -29.765625 50.40625 C-32.45044987 46.04340959 -32.56784516 44.21023702 -31.765625 39.15625 C-29.828125 36.15625 -29.828125 36.15625 -26.765625 34.15625 C-22.44186151 33.28688118 -19.03998892 33.35977255 -15.265625 35.71875 C-13.26429088 38.97091794 -12.83251404 41.34357499 -12.765625 45.15625 C-14.140625 47.84375 -14.140625 47.84375 -15.765625 50.15625 C-16.13682168 51.47954207 -16.47707526 52.81251344 -16.765625 54.15625 C-10.76073631 55.45384872 -10.76073631 55.45384872 -5.140625 53.65625 C-3.52601356 51.14650117 -3.52601356 51.14650117 -3.578125 47.84375 C-5.90207848 40.62726287 -11.82890898 37.0614168 -17.765625 32.71875 C-23.23235031 28.71301903 -28.67654231 24.33441537 -31.765625 18.15625 C-32.44937061 13.27235276 -32.31026422 10.04747781 -29.703125 5.78125 C-21.00142664 -1.99473577 -10.90262204 -1.06603416 0 0 Z " fill="#F9F9F9" transform="translate(52.765625,12.84375)"/>
<path d="M0 0 C6.71334393 4.04974998 9.61935224 10.80320195 13.1875 17.5625 C13.80302734 18.67947266 14.41855469 19.79644531 15.05273438 20.94726562 C20.07323712 30.33011203 24.68169831 40.27320677 22 51 C20.50870801 55.06248508 18.98689015 58.14647338 15.6875 61 C12.14845864 62.3168526 9.74898852 62.53556979 6 62 C3.4375 59.8125 3.4375 59.8125 1 57 C-3.04990741 52.9380572 -5.43217731 51.46551035 -11.16723633 51.35839844 C-12.26007935 51.36661621 -12.26007935 51.36661621 -13.375 51.375 C-26.90818623 51.01045025 -26.90818623 51.01045025 -32.375 45.6875 C-35.40188463 40.6814985 -36.46620579 36.69503621 -35.546875 30.94921875 C-34.67295414 27.8343151 -32.93286837 25.55820814 -31 23 C-29.07188639 20.06926732 -27.82367368 17.45291337 -26.8125 14.125 C-24.58633713 7.9268939 -19.42452758 4.67023011 -14.1875 1.0625 C-9.51744239 -0.49418587 -4.84089298 -1.03344906 0 0 Z M-18 10 C-18 10.66 -18 11.32 -18 12 C-18.99 12.33 -19.98 12.66 -21 13 C-22.10236511 15.19315233 -22.10236511 15.19315233 -22.9375 17.8125 C-24.40865836 21.78462758 -25.74761397 24.19621894 -29 27 C-30.56840852 31.70522555 -30.54895539 35.52648816 -28.8125 40.1875 C-26.7700229 43.35686101 -25.1738913 44.95718378 -22 47 C-18.58903192 47.42328456 -15.3932237 47.50745503 -11.97070312 47.48828125 C-6.83707877 47.59533313 -3.96245273 48.75744326 0 52 C0.33 52.66 0.66 53.32 1 54 C1.99 54 2.98 54 4 54 C4 54.66 4 55.32 4 56 C8.02865351 56.33633637 8.02865351 56.33633637 12 56 C15.87951283 52.32467205 17.81168997 48.43586398 18.5 43.1875 C18.21163719 31.49919408 10.12448778 16.00627268 2.1875 7.8125 C-0.21545805 5.82147762 -1.42449412 5.08632588 -4.5 4.625 C-9.59734167 5.17114375 -13.55871968 7.54237453 -18 10 Z " fill="#B00607" transform="translate(102,13)"/>
<path d="M0 0 C5.62530038 2.50872925 8.05657807 9.75105756 10.36328125 15.07421875 C11.73746163 18.81987497 12.82593616 21.88458974 11.98828125 25.88671875 C9.80078125 28.82421875 9.80078125 28.82421875 6.98828125 30.88671875 C3.85689096 30.88671875 2.09924724 29.94748584 -0.63671875 28.44921875 C-3.87622312 26.94944821 -6.20608116 26.49495913 -9.69921875 26.01171875 C-14.72846378 25.17806672 -14.72846378 25.17806672 -17.19921875 22.63671875 C-18.15596132 19.39851311 -18.49174666 17.24691411 -18.01171875 13.88671875 C-16.19921875 10.82421875 -16.19921875 10.82421875 -14.01171875 7.88671875 C-13.53734375 6.99984375 -13.06296875 6.11296875 -12.57421875 5.19921875 C-9.39598879 0.4954384 -5.69284215 -0.99705145 0 0 Z " fill="#E5921E" transform="translate(100.01171875,28.11328125)"/>
<path d="M0 0 C3.86520439 3.1275113 5.88088658 7.04036267 8.125 11.375 C8.47175781 12.02210937 8.81851563 12.66921875 9.17578125 13.3359375 C12.40768215 19.47778749 14.63223876 24.91892591 14 32 C12.42275698 35.98066095 11.58999089 37.60667274 8 40 C4.0189791 39.8552356 1.7687541 39.68333697 -1.25 37 C-1.8275 36.34 -2.405 35.68 -3 35 C-7.00395739 33.66534754 -10.89290462 33.62333765 -15.08984375 33.37890625 C-19.08004532 32.85937665 -21.19076989 31.98263657 -23.75 28.875 C-25.36209731 25.16717619 -25.8263062 21.93622224 -25 18 C-23.89087279 16.0446498 -22.63974558 14.39297245 -21.21484375 12.65625 C-19.7678571 10.89738755 -19.7678571 10.89738755 -19.1875 7.875 C-17.41060375 3.57304066 -14.06177361 2.01882213 -10 0 C-6.19426871 -1.2685771 -3.89430952 -0.88817586 0 0 Z M-15.75 10.17578125 C-18.57193052 14.37601579 -20.49063905 17.78413618 -20.1875 22.9375 C-19.58388447 25.84303916 -19.20176481 26.79823519 -17.0625 28.9375 C-13.53044791 30.16290583 -10.04155145 30.81946442 -6.36328125 31.45703125 C-3.52084943 32.11008583 -1.48241951 33.51054829 1 35 C4.14900967 34.92319489 5.71842516 34.17783674 8.375 32.5 C10.36164702 29.44361997 10.38449334 27.3435155 9.80859375 23.78125 C7.92019746 17.28589657 4.97384938 9.17302458 -0.58203125 5.11328125 C-7.05642984 2.13233844 -11.61285923 5.03205935 -15.75 10.17578125 Z " fill="#D86116" transform="translate(102,24)"/>
<path d="M0 0 C4.74063495 1.52664515 6.0391595 3.58217427 8.515625 7.76953125 C10.09604548 11.03046551 10.83003899 13.5527558 10.6875 17.1875 C9 19.6875 9 19.6875 6.6875 21.1875 C4.93359375 20.87890625 4.93359375 20.87890625 2.6875 20.1875 C1.69234375 19.93871094 0.6971875 19.68992187 -0.328125 19.43359375 C-4.8203125 18.31054688 -4.8203125 18.31054688 -9.3125 17.1875 C-10.30114315 12.35174546 -10.85990921 9.2627681 -8.5625 4.75 C-5.74550168 1.54175192 -4.3199828 0.24452733 0 0 Z " fill="#F2C326" transform="translate(97.3125,32.8125)"/>
<path d="M0 0 C2.16551116 3.24826674 2.55156953 4.23094157 2 8 C0.375 10.3125 0.375 10.3125 -2 12 C-5.34262452 12.48746608 -7.29442492 12.31565201 -10.375 10.9375 C-12 9 -12 9 -12.4375 5.5 C-12 2 -12 2 -10.6875 0.125 C-6.63505536 -2.57662976 -4.28010003 -1.82131916 0 0 Z " fill="#F4F4F4" transform="translate(219,14)"/>
<path d="M0 0 C2.6875 0.5625 2.6875 0.5625 5.5625 3.25 C7.6875 6.5625 7.6875 6.5625 7.5 9.4375 C7.231875 10.13875 6.96375 10.84 6.6875 11.5625 C5.22957116 11.61649736 3.77107288 11.65529177 2.3125 11.6875 C1.50039062 11.71070313 0.68828125 11.73390625 -0.1484375 11.7578125 C-2.3125 11.5625 -2.3125 11.5625 -4.3125 9.5625 C-4.68029447 5.24091501 -4.98021992 1.21140485 0 0 Z " fill="#FEF130" transform="translate(96.3125,37.4375)"/>
<path d="M0 0 C3.5 0.25 3.5 0.25 5.5 2.25 C5.875 5.1875 5.875 5.1875 5.5 8.25 C3.875 10.1875 3.875 10.1875 1.5 11.25 C-1.625 11.125 -1.625 11.125 -4.5 10.25 C-6.5 7.25 -6.5 7.25 -6.25 4.6875 C-5.03772664 0.74761157 -4.12711402 0.29479386 0 0 Z " fill="#F8F9F9" transform="translate(266.5,59.75)"/>
<path d="M0 0 C1.32 0 2.64 0 4 0 C4 0.66 4 1.32 4 2 C4.60473145 2.01981934 5.20946289 2.03963867 5.83251953 2.06005859 C8.59708509 2.15586299 11.36095174 2.26531555 14.125 2.375 C15.07632813 2.4059375 16.02765625 2.436875 17.0078125 2.46875 C26.61843948 2.86919279 26.61843948 2.86919279 31 5 C31.86424353 6.79250511 32.72835702 8.58507458 33.58984375 10.37890625 C36.5579289 13.79097089 41.7250148 13.63883746 46 14 C44 16 44 16 40.6875 16.4375 C36.01710718 15.8833856 35.03107153 14.49739023 32 11 C27.94939527 6.93735781 25.56751576 5.46670813 19.83203125 5.35766602 C19.10371094 5.36338623 18.37539062 5.36910645 17.625 5.375 C11.48212045 5.22682806 6.55435277 4.89289207 1 2 C0.67 1.34 0.34 0.68 0 0 Z " fill="#92080A" transform="translate(71,59)"/>
<path d="M0 0 C2 0 2 0 3.60546875 1.1328125 C5.56388943 3.75501162 5.36502404 5.63467073 5.3125 8.875 C5.30863281 9.90367188 5.30476562 10.93234375 5.30078125 11.9921875 C4.996512 15.03487999 4.18788562 17.20635596 3 20 C2.83242243 23.20870233 2.83242243 23.20870233 3 26 C2.34 26.33 1.68 26.66 1 27 C1.33 20.07 1.66 13.14 2 6 C0.02 6.99 0.02 6.99 -2 8 C-1.34 5.36 -0.68 2.72 0 0 Z " fill="#EAEBE9" transform="translate(176,33)"/>
<path d="M0 0 C2.96074854 4.44112281 3.17178931 8.72263236 3 14 C2.13386848 17.60154123 1.02849257 20.8872081 -1 24 C-3.14453125 25.27734375 -3.14453125 25.27734375 -5 26 C-4.01 24.02 -3.02 22.04 -2 20 C-3.32 20.33 -4.64 20.66 -6 21 C-5.566875 20.48953125 -5.13375 19.9790625 -4.6875 19.453125 C0.2609086 12.99270267 0.73027231 7.99242475 0 0 Z " fill="#9E0A0F" transform="translate(122,47)"/>
<path d="M0 0 C0.33 0 0.66 0 1 0 C1 2.31 1 4.62 1 7 C1.66 7 2.32 7 3 7 C3 10.96 3 14.92 3 19 C-0.21663761 15.78336239 -1.01384166 14.35553267 -2 10 C-1.88942012 6.50697663 -1.58157933 3.16315865 0 0 Z " fill="#A90D15" transform="translate(68,40)"/>
<path d="M0 0 C0.99 0.33 1.98 0.66 3 1 C2.01 2.485 2.01 2.485 1 4 C0.34 4 -0.32 4 -1 4 C-1 4.66 -1 5.32 -1 6 C-2.25 7.625 -2.25 7.625 -4 9 C-5.32 9 -6.64 9 -8 9 C-8 7.68 -8 6.36 -8 5 C-7.13375 4.87625 -7.13375 4.87625 -6.25 4.75 C-3.3840696 3.79468987 -2.0009236 2.21530827 0 0 Z " fill="#BC0403" transform="translate(85,19)"/>
<path d="M0 0 C0.66 0.33 1.32 0.66 2 1 C2 1.66 2 2.32 2 3 C2.99 3.33 3.98 3.66 5 4 C5 5.98 5 7.96 5 10 C2.59927045 7.11912454 0.52708963 4.43595166 -1 1 C-0.67 0.67 -0.34 0.34 0 0 Z " fill="#BA0606" transform="translate(105,19)"/>
<path d="M0 0 C0.66 0.33 1.32 0.66 2 1 C-0.475 4.465 -0.475 4.465 -3 8 C-3.99 7.34 -4.98 6.68 -6 6 C-4.02 4.02 -2.04 2.04 0 0 Z " fill="#9B080D" transform="translate(83,17)"/>
<path d="M0 0 C3.3 0.33 6.6 0.66 10 1 C8 3 8 3 4.375 3.125 C3.26125 3.08375 2.1475 3.0425 1 3 C0.67 2.01 0.34 1.02 0 0 Z " fill="#940C14" transform="translate(107,72)"/>
</svg>
