<?xml version="1.0" encoding="UTF-8"?>
<!-- Generator: visioncortex VTracer 0.6.4 -->
<svg version="1.1" xmlns="http://www.w3.org/2000/svg" width="457" height="128">
<path d="M0 0 C1 1 1 1 1.12025452 3.77772522 C1.1169236 5.63970802 1.1169236 5.63970802 1.11352539 7.53930664 C1.11367142 8.22220261 1.11381744 8.90509857 1.1139679 9.60868835 C1.11326876 11.87587614 1.1054764 14.14298274 1.09765625 16.41015625 C1.09579207 17.97814387 1.09436817 19.54613207 1.09336853 21.11412048 C1.08954334 25.24876503 1.07971306 29.38337466 1.06866455 33.51800537 C1.05845044 37.73400398 1.05387091 41.95000822 1.04882812 46.16601562 C1.03809079 54.44402647 1.02101436 62.7220089 1 71 C1.39338058 70.44742523 1.78676117 69.89485046 2.19206238 69.32553101 C2.71802505 68.6024173 3.24398773 67.87930359 3.78588867 67.13427734 C4.30301926 66.41670258 4.82014984 65.69912781 5.35295105 64.95980835 C8.0629222 61.73523869 11.12513328 60.47849844 15 59 C16.11165527 58.57170898 17.22331055 58.14341797 18.36865234 57.70214844 C22.2926236 56.21591548 26.238737 54.79373987 30.1875 53.375 C32.2225907 52.63891878 34.25718392 51.90148077 36.2915802 51.16348267 C38.12869913 50.49781314 39.96702535 49.83547827 41.80541992 49.17333984 C44.55858642 48.16212714 47.28403371 47.10656391 50 46 C50 45.34 50 44.68 50 44 C50.66 44 51.32 44 52 44 C52.05170927 38.77376106 52.05170927 38.77376106 49.5859375 34.42578125 C42.29342734 29.07686961 34.88365606 28.16260619 26 29 C23.63441824 29.7578623 22.08131477 30.61245682 20 32 C20.37724854 35.30092468 20.81284882 36.79016382 23.0625 39.3125 C25.35277838 42.48933776 25.59269145 44.24548322 25.390625 48.0703125 C24.76020144 51.1846049 23.2720715 52.8541547 21 55 C17.19795743 57.32435796 14.44162264 57.22538474 10.12890625 56.5859375 C8 56 8 56 5.4375 54.0625 C3.36039765 49.63736891 3.2575183 45.80292852 4 41 C7.07713945 34.33286453 13.33700522 29.82788753 20.0625 27.125 C29.41220313 24.43979114 39.25197381 24.70369121 47.8515625 29.3203125 C51.53068727 32.19671914 54.53548946 34.67127069 55.4704895 39.35870361 C55.65733148 42.21895738 55.6920725 45.0438526 55.671875 47.91015625 C55.68462463 48.95521835 55.69737427 50.00028046 55.71051025 51.07701111 C55.74674781 54.40578456 55.74951862 57.7335469 55.75 61.0625 C55.77164825 64.394646 55.8001596 67.72664055 55.83233643 71.05870056 C55.85002684 73.12876859 55.86037254 75.19891569 55.86248779 77.26905823 C55.86629456 78.21031052 55.87010132 79.15156281 55.87402344 80.12133789 C55.87448669 80.94485245 55.87494995 81.768367 55.87542725 82.61683655 C56.0082422 85.15767907 56.44402701 87.52013497 57 90 C57.66 90 58.32 90 59 90 C58.958401 82.52482088 58.88614364 75.05039053 58.79248047 67.57568359 C58.76424044 65.03245809 58.7430411 62.48914433 58.72900391 59.94580078 C58.70761723 56.29153147 58.66098609 52.63832686 58.609375 48.984375 C58.60814636 47.84570984 58.60691772 46.70704468 58.60565186 45.53387451 C58.58593323 44.47307678 58.5662146 43.41227905 58.54589844 42.31933594 C58.53701599 41.38667908 58.52813354 40.45402222 58.51898193 39.49310303 C57.84687315 36.26440405 56.46797439 35.11582859 54 33 C53.34 32.34 52.68 31.68 52 31 C57.62961642 29.18202346 63.0577367 28.42049895 68.9375 27.875 C69.81212891 27.78863281 70.68675781 27.70226562 71.58789062 27.61328125 C73.72470254 27.40310303 75.86228122 27.20074482 78 27 C78.495 28.485 78.495 28.485 79 30 C79.57105469 29.6390625 80.14210938 29.278125 80.73046875 28.90625 C87.56812136 24.99280812 94.14889702 23.45743912 102 25 C102.58652344 25.67804687 103.17304688 26.35609375 103.77734375 27.0546875 C106.42212223 29.36944969 107.11006828 29.25003904 110.51171875 29.13671875 C112.23868642 29.00815707 113.96413397 28.85766161 115.6875 28.6875 C117.42023612 28.54151857 119.15330149 28.3993764 120.88671875 28.26171875 C121.65201904 28.18912842 122.41731934 28.11653809 123.20581055 28.04174805 C124.09393433 28.02108276 124.09393433 28.02108276 125 28 C126 29 126 29 126.09765625 30.84765625 C126.06510417 32.8984375 126.03255208 34.94921875 126 37 C126.556875 35.88625 126.556875 35.88625 127.125 34.75 C130.21652924 30.21575712 134.49669687 27.62373984 139.83203125 26.31640625 C148.17775488 25.09838172 155.6208162 25.89375983 163.61328125 28.40234375 C166.63675857 29.15945018 169.01050209 28.78670998 172 28 C173 29 173 29 173.11352539 31.13305664 C173.10828857 32.04949951 173.10305176 32.96594238 173.09765625 33.91015625 C173.09443359 34.89951172 173.09121094 35.88886719 173.08789062 36.90820312 C173.07951172 37.94912109 173.07113281 38.99003906 173.0625 40.0625 C173.05798828 41.10728516 173.05347656 42.15207031 173.04882812 43.22851562 C173.03699913 45.8190666 173.02051689 48.40950559 173 51 C172.01 51 171.02 51 170 51 C169.75765625 50.19175781 169.5153125 49.38351563 169.265625 48.55078125 C166.79636205 40.65912827 166.79636205 40.65912827 162 34 C162 33.34 162 32.68 162 32 C160.44240657 31.46467177 158.87861955 30.94734622 157.3125 30.4375 C156.44238281 30.14746094 155.57226562 29.85742188 154.67578125 29.55859375 C151.70186939 28.93776251 149.88195127 29.07876088 147 30 C144.86067557 32.56718932 143.97621924 34.07255024 144.0625 37.4375 C147.2326171 46.10248673 154.27953496 50.48042126 161.44140625 55.8203125 C175.34079922 66.30953291 175.34079922 66.30953291 176.40625 73.890625 C176.69082479 84.08788817 176.69082479 84.08788817 173.6875 88 C168.36435873 93.05887185 160.50753403 96.55735389 153.16015625 97.0703125 C144.80411622 96.79832566 135.56092075 95.54976936 129.40234375 89.40625 C128.20325094 87.99005125 127.09144169 86.50073232 126 85 C127.1897472 90.25471679 127.51057163 91.63292872 132 95 C120.78 95 109.56 95 98 95 C99.65 93.35 101.3 91.7 103 90 C103.77775394 87.66808255 103.77775394 87.66808255 103.7512207 85.2097168 C103.81071648 83.82885139 103.81071648 83.82885139 103.87141418 82.42008972 C103.88935532 81.4397023 103.90729645 80.45931488 103.92578125 79.44921875 C103.9630986 78.43527542 104.00041595 77.42133209 104.03886414 76.37666321 C104.15256499 73.14722598 104.23295852 69.91794133 104.3125 66.6875 C104.38387191 64.49406808 104.4574146 62.30070564 104.53320312 60.10742188 C104.71397183 54.73883212 104.86742846 49.36998446 105 44 C104.01 44.66 103.02 45.32 102 46 C95.14606742 47.57303371 95.14606742 47.57303371 90.625 45.3125 C85.77154275 41.03683528 85.62173364 37.21733641 85 31 C83.35 31 81.7 31 80 31 C79.97453738 38.24079635 79.95708594 45.48158105 79.94506836 52.72241211 C79.9400556 55.18302848 79.93324369 57.64364189 79.92456055 60.10424805 C79.91236068 63.65153739 79.90674097 67.19878717 79.90234375 70.74609375 C79.89718246 71.8370787 79.89202118 72.92806366 79.88670349 74.05210876 C79.88626287 80.12136281 80.20400785 85.98185864 81 92 C82.65 92.66 84.3 93.32 86 94 C86 94.33 86 94.66 86 95 C84.84064941 94.99476318 83.68129883 94.98952637 82.48681641 94.98413086 C78.14437649 94.96589392 73.80193988 94.9545003 69.45947266 94.94506836 C67.58772205 94.94007058 65.71597529 94.93327012 63.84423828 94.92456055 C61.13833665 94.91229379 58.43248708 94.906726 55.7265625 94.90234375 C54.49155502 94.89460182 54.49155502 94.89460182 53.2315979 94.88670349 C47.43488327 94.88615625 41.75653878 95.32839588 36 96 C35.67 94.35 35.34 92.7 35 91 C34.48050781 91.27714844 33.96101563 91.55429688 33.42578125 91.83984375 C26.23093874 95.57690613 26.23093874 95.57690613 22 96 C20.1746875 96.185625 20.1746875 96.185625 18.3125 96.375 C12.97554258 96.31412216 8.36104154 93.94350939 4 91 C2.20703125 88.828125 2.20703125 88.828125 1 87 C1.60226048 91.21582339 2.57097144 91.57097144 6 95 C-4.89 95 -15.78 95 -27 95 C-25.35 93.35 -23.7 91.7 -22 90 C-21.50443694 87.1620708 -21.31376987 84.92355928 -21.35302734 82.09204102 C-21.34426575 81.31090942 -21.33550415 80.52977783 -21.32647705 79.72497559 C-21.30452571 77.15071553 -21.31902079 74.57818283 -21.3359375 72.00390625 C-21.33256777 70.20938285 -21.32771384 68.41486167 -21.32144165 66.62034607 C-21.31407585 62.86182903 -21.32476484 59.10390678 -21.34814453 55.34545898 C-21.37661191 50.53548785 -21.36023994 45.7269129 -21.33028221 40.91699314 C-21.31218355 37.21166025 -21.31797931 33.50665639 -21.33092117 29.8013134 C-21.33424917 28.0283485 -21.33018944 26.25535342 -21.31852341 24.48242378 C-21.30577409 21.9999334 -21.32524656 19.51967807 -21.35302734 17.03735352 C-21.34290619 16.30937057 -21.33278503 15.58138763 -21.32235718 14.8313446 C-21.43914595 9.17735002 -23.19097131 6.86803448 -27 3 C-18.19365939 0.18946576 -9.23263172 -0.56055264 0 0 Z M125 47 C125 56.57 125 66.14 125 76 C126.74627478 73.38058783 127.38722388 71.96175123 128 69 C138.71056619 68.23129908 138.71056619 68.23129908 143.25 70.9375 C145.60490153 75.05857768 146.07389446 78.36012014 145 83 C143.53116536 85.23027065 141.80330584 87.01173971 140 89 C139.88394923 91.29708319 139.88394923 91.29708319 141 93 C145.21390487 95.10695243 150.43381805 94.65231171 155 94 C158.17233151 91.03915726 158.90775067 89.41448978 159.1875 85.125 C155.65611996 75.83189463 145.61668629 68.09355516 137.3125 63.125 C132.12100854 59.83039965 129.79894965 55.33176965 127 50 C126.34 49.01 125.68 48.02 125 47 Z M29.9375 56.375 C29.20402344 56.81585938 28.47054687 57.25671875 27.71484375 57.7109375 C27.14894531 58.13632813 26.58304687 58.56171875 26 59 C26 59.66 26 60.32 26 61 C25.34 61 24.68 61 24 61 C20.83556692 66.97569282 18.79478337 72.19052606 20 79 C21.32833764 82.88335443 23.10665319 85.98343294 25.8125 89.0625 C28.69055454 90.52033381 28.69055454 90.52033381 35 89 C35 77.45 35 65.9 35 54 C33.10268276 54 31.50985881 55.41550062 29.9375 56.375 Z " fill="#0A0A0A" transform="translate(233,15)"/>
<path d="M0 0 C9.47370787 5.29632487 13.84491648 16.47281022 18.36328125 25.8046875 C20.29949451 29.78463164 22.37193295 33.68096587 24.46972656 37.57763672 C32.83009968 53.13260613 39.58648263 70.39254639 34.484375 88.296875 C32.06573399 94.17234727 27.83166421 98.64495642 22.671875 102.234375 C17.8741207 103.76965638 13.24637879 104.52060916 8.5546875 102.28515625 C4.90513815 99.8025229 2.02839595 96.90702601 -0.453125 93.234375 C-0.453125 92.574375 -0.453125 91.914375 -0.453125 91.234375 C-1.443125 90.904375 -2.433125 90.574375 -3.453125 90.234375 C-4.45975388 89.24104812 -5.45952071 88.24073007 -6.453125 87.234375 C-14.47931658 83.24934282 -22.57173116 83.82456444 -31.3671875 83.8828125 C-39.06078759 83.77931115 -45.08566146 82.77606429 -51.453125 78.234375 C-57.9056406 71.41787968 -59.87781665 65.27002723 -59.81445312 55.90014648 C-59.5809608 47.648407 -56.94810383 43.58266157 -51.265625 37.859375 C-50.22341797 36.88871094 -50.22341797 36.88871094 -49.16015625 35.8984375 C-46.55449904 33.35836891 -46.3760197 31.67299258 -46.203125 28.171875 C-45.68313396 22.74281603 -43.35505346 18.76395337 -40.453125 14.234375 C-39.793125 14.234375 -39.133125 14.234375 -38.453125 14.234375 C-38.20820312 13.63625 -37.96328125 13.038125 -37.7109375 12.421875 C-31.24632259 1.17906646 -11.56752669 -3.61024718 0 0 Z " fill="#CA310D" transform="translate(163.453125,14.765625)"/>
<path d="M0 0 C3.44873712 0.55371633 6.72321368 0.62863507 10.21484375 0.62109375 C12.01308594 0.62496094 12.01308594 0.62496094 13.84765625 0.62890625 C16.47709171 0.52119444 18.59825848 0.27703839 21.08984375 -0.50390625 C22.04360942 2.70391461 22.20605556 5.57796771 22.1875 8.91796875 C22.18266602 10.45517578 22.18266602 10.45517578 22.17773438 12.0234375 C22.16516602 13.61865234 22.16516602 13.61865234 22.15234375 15.24609375 C22.14783203 16.32503906 22.14332031 17.40398438 22.13867188 18.515625 C22.12690102 21.17583758 22.11045774 23.8359374 22.08984375 26.49609375 C21.09984375 26.49609375 20.10984375 26.49609375 19.08984375 26.49609375 C18.7959375 25.46162109 18.7959375 25.46162109 18.49609375 24.40625 C15.7634197 15.81952853 11.66559304 9.61149752 4.15234375 4.49609375 C-2.4787702 2.33083205 -8.3252628 1.7304385 -14.91015625 4.49609375 C-18.02439938 7.40272067 -18.66357279 10.30417499 -18.91015625 14.49609375 C-17.68198047 22.78628026 -11.92152417 28.15843533 -5.45703125 33.0234375 C-3.86394457 34.16837073 -2.26480428 35.30492109 -0.66015625 36.43359375 C1.02731861 37.65318303 2.71352311 38.874532 4.3984375 40.09765625 C5.60862549 40.97212402 5.60862549 40.97212402 6.84326172 41.86425781 C15.35957299 48.05019832 23.63265079 54.12451487 27.08984375 64.49609375 C27.63636595 70.62430985 28.12814254 76.69876398 24.4609375 81.9140625 C17.75520428 89.65144698 9.88036596 94.61360889 -0.44042969 95.78271484 C-14.55757243 96.78031286 -26.72106992 95.89611827 -38.03515625 86.62109375 C-42.14121373 82.58296736 -44.83268264 79.23419543 -44.95703125 73.234375 C-44.52481562 67.2914101 -42.79004883 63.73983651 -38.97265625 59.18359375 C-34.10146782 56.49946951 -29.3375038 56.65614711 -23.91015625 57.49609375 C-19.57819184 59.3857265 -16.66851937 62.0801133 -14.91015625 66.49609375 C-14.00374038 71.51747722 -13.96593872 75.82413782 -16.51171875 80.33203125 C-17.78355557 82.05990518 -19.10358136 83.75369583 -20.4765625 85.40234375 C-20.94964844 86.09328125 -21.42273438 86.78421875 -21.91015625 87.49609375 C-21.24318825 90.5431751 -21.24318825 90.5431751 -19.14453125 91.62890625 C-14.46528915 93.44497574 -9.48235003 94.1834531 -4.5859375 92.875 C-1.10716165 91.32530503 0.83570309 89.81750694 3.21484375 86.80859375 C4.44076863 82.16759241 3.96053018 78.89859274 2.08984375 74.49609375 C-3.27047665 66.19316423 -12.09474448 60.31317581 -19.9296875 54.50390625 C-20.62908447 53.98473633 -21.32848145 53.46556641 -22.04907227 52.93066406 C-23.41588772 51.9209246 -24.78721187 50.9172482 -26.16381836 49.92089844 C-33.22645276 44.73072453 -38.96406723 39.38827179 -42.91015625 31.49609375 C-43.32265625 30.69171875 -43.73515625 29.88734375 -44.16015625 29.05859375 C-45.71764699 23.73716704 -45.54901327 19.30794467 -43.28515625 14.30859375 C-39.38176968 7.35866157 -33.24913193 4.00801445 -25.91015625 1.49609375 C-17.52230391 -0.73311025 -8.5835896 -1.48628598 0 0 Z " fill="#0D0D0D" transform="translate(68.91015625,14.50390625)"/>
<path d="M0 0 C9.47370787 5.29632487 13.84491648 16.47281022 18.36328125 25.8046875 C20.29949451 29.78463164 22.37193295 33.68096587 24.46972656 37.57763672 C32.83009968 53.13260613 39.58648263 70.39254639 34.484375 88.296875 C32.06573399 94.17234727 27.83166421 98.64495642 22.671875 102.234375 C17.8741207 103.76965638 13.24637879 104.52060916 8.5546875 102.28515625 C4.90513815 99.8025229 2.02839595 96.90702601 -0.453125 93.234375 C-0.453125 92.574375 -0.453125 91.914375 -0.453125 91.234375 C-1.443125 90.904375 -2.433125 90.574375 -3.453125 90.234375 C-4.45975388 89.24104812 -5.45952071 88.24073007 -6.453125 87.234375 C-14.47931658 83.24934282 -22.57173116 83.82456444 -31.3671875 83.8828125 C-39.06078759 83.77931115 -45.08566146 82.77606429 -51.453125 78.234375 C-57.9056406 71.41787968 -59.87781665 65.27002723 -59.81445312 55.90014648 C-59.5809608 47.648407 -56.94810383 43.58266157 -51.265625 37.859375 C-50.22341797 36.88871094 -50.22341797 36.88871094 -49.16015625 35.8984375 C-46.55449904 33.35836891 -46.3760197 31.67299258 -46.203125 28.171875 C-45.68313396 22.74281603 -43.35505346 18.76395337 -40.453125 14.234375 C-39.793125 14.234375 -39.133125 14.234375 -38.453125 14.234375 C-38.20820312 13.63625 -37.96328125 13.038125 -37.7109375 12.421875 C-31.24632259 1.17906646 -11.56752669 -3.61024718 0 0 Z M-34.953125 20.421875 C-37.40053544 23.49150843 -38.05114835 26.3541379 -38.828125 30.171875 C-40.01913255 35.94645705 -42.12726358 38.68379762 -46.61328125 42.41796875 C-49.71521835 45.48039073 -50.36793168 48.28839722 -50.75390625 52.57421875 C-50.75777344 53.76144531 -50.76164062 54.94867188 -50.765625 56.171875 C-50.78238281 57.35652344 -50.79914063 58.54117188 -50.81640625 59.76171875 C-50.15443249 66.08961845 -47.23878775 70.19314868 -42.453125 74.234375 C-36.26844856 78.34487712 -30.67800987 78.7919344 -23.390625 78.796875 C-9.09630052 78.86443764 -9.09630052 78.86443764 -2.953125 84.546875 C-2.128125 85.43375 -1.303125 86.320625 -0.453125 87.234375 C0.76220779 88.3332053 1.99201293 89.41619978 3.234375 90.484375 C4.10642578 91.23460938 4.10642578 91.23460938 4.99609375 92 C7.69345557 94.14701848 9.35443444 94.39875569 12.734375 94.171875 C18.02982961 93.49821813 21.18330039 91.32002134 24.546875 87.234375 C29.26843602 79.33617551 29.56606935 69.71486456 27.859375 60.859375 C25.18160882 50.58013132 20.12926235 41.07335869 15.14550781 31.75073242 C14.16702874 29.91277186 13.20850431 28.06523632 12.25 26.21679688 C6.56473973 15.01634971 6.56473973 15.01634971 -3.453125 8.234375 C-15.82972819 7.18468282 -26.22307084 11.56152153 -34.953125 20.421875 Z " fill="#C4181C" transform="translate(163.453125,14.765625)"/>
<path d="M0 0 C5.87592784 2.98472197 8.18456188 6.99637571 11.125 12.625 C11.55731934 13.43316162 11.98963867 14.24132324 12.43505859 15.07397461 C21.40738986 32.05792538 21.40738986 32.05792538 20 41 C18.3318201 45.65334394 16.27827943 48.47192579 12 51 C8.26844532 51.71760667 6.01593591 51.57930694 2.69140625 49.68359375 C1.14112871 48.62716488 -0.38687272 47.53703879 -1.88671875 46.41015625 C-5.89559077 43.73510486 -9.58371625 43.92919149 -14.3125 43.8125 C-19.80444844 43.42991483 -22.81545047 42.5235184 -26.73046875 38.66796875 C-29.82336158 34.6043834 -30.43143059 31.33105626 -30.32421875 26.30859375 C-29.79017791 22.50596563 -28.14100014 20.1809145 -26 17 C-25.505 16.175 -25.01 15.35 -24.5 14.5 C-24.005 13.675 -23.51 12.85 -23 12 C-22.2265625 10.2675 -22.2265625 10.2675 -21.4375 8.5 C-17.44265807 1.53189785 -7.69210108 -1.97757918 0 0 Z " fill="#E4941D" transform="translate(159,40)"/>
<path d="M0 0 C5.76137309 3.43283095 8.76024863 8.3612713 11.625 14.25 C12.00543457 15.00071777 12.38586914 15.75143555 12.77783203 16.52490234 C13.86520922 18.676916 14.93305378 20.83780938 16 23 C16.78117187 24.52753906 16.78117187 24.52753906 17.578125 26.0859375 C18.74945156 28.37919732 19.90317121 30.67023958 21 33 C21.52851563 34.07121094 22.05703125 35.14242187 22.6015625 36.24609375 C24.31551327 40.3021903 24.53810059 44.07156355 24.5 48.4375 C24.49500488 49.18596191 24.49000977 49.93442383 24.48486328 50.70556641 C24.32570253 55.73175322 23.70591053 59.57475748 20.48828125 63.6171875 C17.29223956 66.58673804 14.4612862 67.82713808 10.16015625 68.3359375 C6.03110271 67.89700227 4.4458664 66.36715394 1.375 63.625 C-4.72065798 58.17966525 -4.72065798 58.17966525 -12.484375 56.76171875 C-13.33773437 56.74560547 -14.19109375 56.72949219 -15.0703125 56.71289062 C-16.84107401 56.69611227 -18.61198369 56.69069727 -20.3828125 56.69726562 C-26.70431397 56.55014359 -31.17125766 55.20747109 -36 51 C-40.4179188 45.21896838 -40.89214736 39.09365949 -40 32 C-38.67126459 28.2235941 -37.46774916 26.42097425 -34.5 23.75 C-31.9117065 20.90287715 -31.5065738 19.72748057 -30.625 16.125 C-28.77640763 9.1850331 -24.44055707 5.25966176 -18.4375 1.5625 C-12.74764531 -0.98237641 -6.03197529 -1.2648787 0 0 Z M-22.4140625 14.71484375 C-23.61542302 16.74104171 -23.61542302 16.74104171 -25 20 C-26.67955505 22.79925842 -28.36341353 25.53992867 -30.1875 28.25 C-32.539028 32.41737973 -32.84560324 36.31928712 -32 41 C-29.75086139 45.41497579 -27.08051558 48.22942266 -23 51 C-19.9280493 51.58325509 -19.9280493 51.58325509 -16.6875 51.5625 C-9.932434 51.89834509 -4.74328141 52.65817441 0.5625 57.1875 C2.96624915 59.26465343 2.96624915 59.26465343 6.4375 59.5625 C10.99293825 58.84322028 12.83834332 57.30871048 16 54 C18.63955085 49.68073497 18.60209196 44.91180283 18 40 C16.26989043 33.1289934 12.44714495 26.8352937 9.125 20.625 C8.71459473 19.83939697 8.30418945 19.05379395 7.88134766 18.24438477 C5.26572465 13.49340274 2.98384647 10.53158249 -2 8 C-9.07202741 6.18183693 -17.7743673 9.08825206 -22.4140625 14.71484375 Z " fill="#D76215" transform="translate(161,32)"/>
<path d="M0 0 C7.05684177 4.03248101 11.48226152 12.44678456 14 20 C14.51612552 24.51821361 14.5689505 27.94962984 12.375 32 C9.31742717 34.57479817 8.02166568 35.07447529 4 35 C1.4872137 34.13921853 -0.90857233 33.11707664 -3.3359375 32.0390625 C-6.04522285 30.98236176 -8.50635686 30.49406578 -11.375 30.0625 C-15.00207493 29.43046653 -15.8076548 29.18765386 -18.5625 26.5 C-20.8346939 22.54835844 -21.2741577 20.22933498 -20.703125 15.5859375 C-19.13885747 9.83290912 -15.35856798 4.66617832 -10.51171875 1.2421875 C-6.97697579 -0.50594354 -3.81252448 -0.75346334 0 0 Z " fill="#F2C525" transform="translate(158,48)"/>
<path d="M0 0 C3.11163156 2.28146498 5.02364715 4.16279312 7.03515625 7.4921875 C6.97265625 10.3046875 6.97265625 10.3046875 6.03515625 12.4921875 C5.04515625 12.9871875 5.04515625 12.9871875 4.03515625 13.4921875 C4.01453125 12.4403125 3.99390625 11.3884375 3.97265625 10.3046875 C2.86142246 5.78567008 1.72744543 4.83181635 -2.08984375 2.4921875 C-8.50330153 -0.92832331 -14.8001883 -1.18316937 -21.96484375 -0.5078125 C-24.33042551 0.2500498 -25.88352898 1.10464432 -27.96484375 2.4921875 C-27.58759521 5.79311218 -27.15199493 7.28235132 -24.90234375 9.8046875 C-22.61206537 12.98152526 -22.3721523 14.73767072 -22.57421875 18.5625 C-23.20464231 21.6767924 -24.69277225 23.3463422 -26.96484375 25.4921875 C-30.76688632 27.81654546 -33.52322111 27.71757224 -37.8359375 27.078125 C-39.96484375 26.4921875 -39.96484375 26.4921875 -42.52734375 24.5546875 C-44.6044461 20.12955641 -44.70732545 16.29511602 -43.96484375 11.4921875 C-40.8877043 4.82505203 -34.62783853 0.32007503 -27.90234375 -2.3828125 C-18.60054195 -5.05426423 -8.42648902 -4.9799284 0 0 Z " fill="#0E0E0E" transform="translate(280.96484375,44.5078125)"/>
<path d="M0 0 C3.46863832 3.03505853 4.7578177 5.13722555 6 9.5625 C6 14.16096542 4.48132874 16.12334733 1.7265625 19.61328125 C-1.2988177 22.04316807 -4.59934031 21.45699409 -8.328125 21.36328125 C-11.86768042 20.88202591 -13.65345729 19.65941507 -16 17 C-17.74348951 13.51302098 -17.58082725 9.80409937 -17 6 C-13.18491487 -1.12934828 -7.28845428 -2.05866866 0 0 Z " fill="#202020" transform="translate(354,15)"/>
<path d="M0 0 C3.09459022 2.60226905 5.74045394 5.10685765 7 9 C7.1875 12.6875 7.1875 12.6875 7 16 C5.20011574 17.79988426 2.75851022 17.71961453 0.33984375 18.00390625 C-3.67937255 17.99719637 -7.41421437 16.78112328 -11 15 C-12.5958009 11.80839819 -12.37921376 8.47279968 -12 5 C-10.6875 2.0625 -10.6875 2.0625 -9 0 C-5.37580435 -1.20806522 -3.66716248 -1.0268055 0 0 Z " fill="#FEF72D" transform="translate(158,57)"/>
<path d="M0 0 C1.87491693 -0.02730462 3.74995225 -0.04653244 5.625 -0.0625 C6.66914062 -0.07410156 7.71328125 -0.08570313 8.7890625 -0.09765625 C12 0 12 0 14.953125 0.49609375 C18.38795039 1.06416103 21.64489768 1.13251642 25.125 1.125 C26.92324219 1.12886719 26.92324219 1.12886719 28.7578125 1.1328125 C31.38724796 1.02510069 33.50841473 0.78094464 36 0 C36.95376567 3.20782086 37.11621181 6.08187396 37.09765625 9.421875 C37.09443359 10.44667969 37.09121094 11.47148437 37.08789062 12.52734375 C37.07532227 14.12255859 37.07532227 14.12255859 37.0625 15.75 C37.05798828 16.82894531 37.05347656 17.90789063 37.04882812 19.01953125 C37.03705727 21.67974383 37.02061399 24.33984365 37 27 C36.01 27 35.02 27 34 27 C33.70609375 25.96552734 33.70609375 25.96552734 33.40625 24.91015625 C30.67357595 16.32343478 26.57574929 10.11540377 19.0625 5 C12.97118453 3.01099903 7.28333411 2.54999982 1 4 C0.67 2.68 0.34 1.36 0 0 Z " fill="#171717" transform="translate(54,14)"/>
<path d="M0 0 C7.72456782 -0.33157922 14.22915732 0.08469901 21.61328125 2.40234375 C24.63675857 3.15945018 27.01050209 2.78670998 30 2 C31 3 31 3 31.11352539 5.13305664 C31.10828857 6.04949951 31.10305176 6.96594238 31.09765625 7.91015625 C31.09443359 8.89951172 31.09121094 9.88886719 31.08789062 10.90820312 C31.07951172 11.94912109 31.07113281 12.99003906 31.0625 14.0625 C31.05798828 15.10728516 31.05347656 16.15207031 31.04882812 17.22851562 C31.03699913 19.8190666 31.02051689 22.40950559 31 25 C30.01 25 29.02 25 28 25 C27.63648438 23.78763672 27.63648438 23.78763672 27.265625 22.55078125 C24.79636205 14.65912827 24.79636205 14.65912827 20 8 C20 7.34 20 6.68 20 6 C16.7 5.01 13.4 4.02 10 3 C10 2.67 10 2.34 10 2 C6.7 1.67 3.4 1.34 0 1 C0 0.67 0 0.34 0 0 Z " fill="#171717" transform="translate(375,41)"/>
<path d="M0 0 C3.11163156 2.28146498 5.02364715 4.16279312 7.03515625 7.4921875 C6.97265625 10.3046875 6.97265625 10.3046875 6.03515625 12.4921875 C5.04515625 12.9871875 5.04515625 12.9871875 4.03515625 13.4921875 C4.01453125 12.4403125 3.99390625 11.3884375 3.97265625 10.3046875 C2.86142246 5.78567008 1.72744543 4.83181635 -2.08984375 2.4921875 C-8.54212397 -0.94902862 -14.76721976 -1.04170219 -21.96484375 -0.5078125 C-23.97189618 0.1373115 -25.97501562 0.79574765 -27.96484375 1.4921875 C-30.12109375 0.546875 -30.12109375 0.546875 -31.96484375 -0.5078125 C-21.63497128 -4.85723249 -9.92768882 -5.86711493 0 0 Z " fill="#9F9F9F" transform="translate(280.96484375,44.5078125)"/>
<path d="M0 0 C0.99 0.33 1.98 0.66 3 1 C3 8.26 3 15.52 3 23 C2.01 23 1.02 23 0 23 C-0.33 21.02 -0.66 19.04 -1 17 C-0.67 17 -0.34 17 0 17 C0.33 12.05 0.66 7.1 1 2 C0.01 1.67 -0.98 1.34 -2 1 C-1.34 0.67 -0.68 0.34 0 0 Z " fill="#9C9C9C" transform="translate(403,43)"/>
<path d="M0 0 C0.99 0.33 1.98 0.66 3 1 C3 9.58 3 18.16 3 27 C2.01 27 1.02 27 0 27 C-0.33 25.35 -0.66 23.7 -1 22 C-0.67 22 -0.34 22 0 22 C0.33 15.4 0.66 8.8 1 2 C0.01 1.67 -0.98 1.34 -2 1 C-1.34 0.67 -0.68 0.34 0 0 Z " fill="#797979" transform="translate(88,14)"/>
<path d="M0 0 C12.66970387 -0.18451025 12.66970387 -0.18451025 18 1 C14.33310852 3.34681055 11.26635401 3.07355783 7 3 C4.9935269 3.29185063 2.99005807 3.61169599 1 4 C0.67 2.68 0.34 1.36 0 0 Z " fill="#8C8C8C" transform="translate(54,14)"/>
<path d="M0 0 C10.395 0.99 10.395 0.99 21 2 C21 2.33 21 2.66 21 3 C13.74 3 6.48 3 -1 3 C-0.67 2.01 -0.34 1.02 0 0 Z " fill="#717171" transform="translate(50,107)"/>
<path d="M0 0 C0.83595703 0.00902344 1.67191406 0.01804688 2.53320312 0.02734375 C4.58475969 0.05079011 6.63616777 0.08665734 8.6875 0.125 C8.6875 0.455 8.6875 0.785 8.6875 1.125 C7.81867188 1.17398438 6.94984375 1.22296875 6.0546875 1.2734375 C4.90226562 1.34820312 3.74984375 1.42296875 2.5625 1.5 C0.85707031 1.60441406 0.85707031 1.60441406 -0.8828125 1.7109375 C-4.33858226 2.01202034 -4.33858226 2.01202034 -7.59375 3.21875 C-10.3125 4.125 -10.3125 4.125 -12.6875 3.25 C-13.22375 2.87875 -13.76 2.5075 -14.3125 2.125 C-9.57351734 -0.32653075 -5.19187667 -0.10654206 0 0 Z " fill="#656565" transform="translate(263.3125,41.875)"/>
<path d="M0 0 C1.91635217 -0.05423638 3.83314925 -0.09289963 5.75 -0.125 C7.35101563 -0.15980469 7.35101563 -0.15980469 8.984375 -0.1953125 C11.92470106 -0.00487687 13.52361878 0.47329896 16 2 C10.06975197 2.97040422 4.93609666 2.89316269 -1 2 C-0.67 1.34 -0.34 0.68 0 0 Z " fill="#7D7D7D" transform="translate(376,109)"/>
<path d="M0 0 C2.04136395 -0.05451714 4.08315856 -0.09302485 6.125 -0.125 C7.83042969 -0.15980469 7.83042969 -0.15980469 9.5703125 -0.1953125 C13.05757767 0.00327891 15.7553862 0.7475199 19 2 C15.8035914 3.06546953 13.34252724 3.07427838 10 3 C10 2.67 10 2.34 10 2 C6.7 1.67 3.4 1.34 0 1 C0 0.67 0 0.34 0 0 Z " fill="#E3E3E3" transform="translate(375,41)"/>
<path d="M0 0 C-1.39332574 3.36720387 -2.9789286 4.9859524 -6 7 C-5.37162381 3.35541809 -4.14650034 0 0 0 Z " fill="#5D5D5D" transform="translate(366,45)"/>
<path d="M0 0 C3.63 0.33 7.26 0.66 11 1 C7 3 7 3 4 3 C1.8125 2 1.8125 2 0 1 C0 0.67 0 0.34 0 0 Z " fill="#626262" transform="translate(388,43)"/>
</svg>
